<?xml version="1.0" encoding="utf-8"?>
<!-- Generator: Adobe Illustrator 26.1.0, SVG Export Plug-In . SVG Version: 6.00 Build 0)  -->
<svg version="1.1" id="Layer_1" xmlns="http://www.w3.org/2000/svg" xmlns:xlink="http://www.w3.org/1999/xlink" x="0px" y="0px"
	 viewBox="0 0 28.3 28.3" style="enable-background:new 0 0 28.3 28.3;" xml:space="preserve">
<style type="text/css">
	.st0{fill-rule:evenodd;clip-rule:evenodd;fill:#24292F;}
</style>
<path class="st0" d="M14,0.2C6.2,0.2-0.2,6.6-0.2,14.5c0,6.3,4.1,11.7,9.7,13.6c0.7,0.1,1-0.3,1-0.7c0-0.3,0-1.5,0-2.6
	C6.5,25.6,5.7,23,5.7,23C5.1,21.4,4.1,21,4.1,21c-1.3-0.9,0.1-0.9,0.1-0.9c1.4,0.1,2.2,1.5,2.2,1.5c1.3,2.2,3.3,1.6,4.1,1.2
	c0.1-0.9,0.5-1.6,0.9-1.9C8.3,20.5,5,19.3,5,13.8c0-1.6,0.6-2.8,1.5-3.8C6.3,9.6,5.8,8.1,6.6,6.2c0,0,1.2-0.4,3.9,1.5
	c1.2-0.3,2.3-0.5,3.5-0.5c1.2,0,2.4,0.2,3.5,0.5c2.7-1.8,3.9-1.5,3.9-1.5c0.8,2,0.3,3.4,0.1,3.8c0.9,1,1.5,2.3,1.5,3.8
	c0,5.5-3.3,6.7-6.5,7.1c0.5,0.4,1,1.3,1,2.6c0,1.9,0,3.5,0,3.9c0,0.4,0.3,0.8,1,0.7c5.6-1.9,9.7-7.2,9.7-13.6
	C28.2,6.6,21.8,0.2,14,0.2z"/>
</svg>
