<?xml version="1.0" encoding="UTF-8"?> <svg xmlns="http://www.w3.org/2000/svg" viewBox="0 0 407.05 72.21"> <defs> <style>.cls-1{fill:#fff;}.cls-2{fill:#1a6cfe;}</style> </defs> <g id="Слой_2" data-name="Слой 2"> <g id="Слой_1-2" data-name="Слой 1"> <path d="M88.05,56.25l11.44,0L76,16.51l6-13.19Q89.71,16.15,97.5,28.94q12.06,19.84,24.17,39.68H94l1.31,2.53H30.45l1.43-2.48H0L41,0c5.47,9.48,10.83,18.78,16.26,28.21Q60.34,21.63,63.42,15Zm-15.5-.08-8-14.11L58.41,55.13C52.52,44.92,46.72,34.84,40.8,24.58L22,56.17Z"></path> <path class="cls-1" d="M72.55,56.17H22L40.8,24.58c5.92,10.26,11.72,20.34,17.61,30.55l6.12-13.07Z"></path> <g id="text"> <path class="cls-2" d="M146.46,58.64h-7.22V13.54h17.22q9.06,0,13.31,4.35A15.59,15.59,0,0,1,174,29.24q0,8.15-5.14,12a20.42,20.42,0,0,1-12.71,3.9,45.27,45.27,0,0,1-9.71-1.07Zm9.27-38.4h-9.27V38a39.42,39.42,0,0,0,8.13.72c3.62,0,6.5-.79,8.61-2.36s3.18-4,3.18-7.35q0-8.79-10.65-8.79Zm33,38.4h-7.43V23.1h7.43ZM181.89,17a5.1,5.1,0,0,1-1.31-3.53,5,5,0,0,1,1.31-3.5,4.17,4.17,0,0,1,3.17-1.42A4.3,4.3,0,0,1,188.33,10a5,5,0,0,1,1.31,3.5A5.15,5.15,0,0,1,188.33,17a4.25,4.25,0,0,1-3.27,1.47A4.12,4.12,0,0,1,181.89,17Zm24.38,41.64h-7.43V23.1h5.79v6.28a15.89,15.89,0,0,1,23.12-4.25q3.93,3.24,3.92,9.52v24h-7.42v-22c0-2.89-.73-5-2.17-6.46a7.62,7.62,0,0,0-5.54-2.11q-6.91,0-10.27,7Zm65.24-22.47V58.64h-4.92l-.87-5.56q-5,6.35-13.85,6.35a14.23,14.23,0,0,1-9-3,10.2,10.2,0,0,1-3.9-8.53q0-6.21,4.13-9.11a18.12,18.12,0,0,1,10.58-2.89,29.39,29.39,0,0,1,10.56,2.22v-3.2q0-6.74-10.21-6.73a25.19,25.19,0,0,0-11.28,2.29V24a37,37,0,0,1,12.08-2.15,29.42,29.42,0,0,1,6.37.61,16.68,16.68,0,0,1,5.21,2.1A9.66,9.66,0,0,1,270.18,29a17.15,17.15,0,0,1,1.34,7.19Zm-7.28,10.91V44.16a17.74,17.74,0,0,0-9.72-2.71q-7.9,0-7.91,5.63,0,6.63,7.49,6.63a10.39,10.39,0,0,0,5.68-1.77,13.42,13.42,0,0,0,4.46-4.86ZM314,58.64,304,34.82,293.91,58.64h-2.5L275.93,23.1h7.84l9.37,23.21L303,23.1h2.27l9.85,23.21,9.3-23.21h7.64L316.54,58.64Zm53.62-22.47V58.64h-4.93l-.86-5.56q-5,6.35-13.85,6.35a14.24,14.24,0,0,1-9-3,10.2,10.2,0,0,1-3.9-8.53q0-6.21,4.14-9.11a18.08,18.08,0,0,1,10.58-2.89,29.34,29.34,0,0,1,10.55,2.22v-3.2q0-6.74-10.2-6.73a25.13,25.13,0,0,0-11.28,2.29V24a36.79,36.79,0,0,1,12.05-2.15,29.65,29.65,0,0,1,6.4.61,16.73,16.73,0,0,1,5.2,2.1A9.79,9.79,0,0,1,366.33,29a17.32,17.32,0,0,1,1.33,7.19Zm-7.29,10.91V44.16a17.73,17.73,0,0,0-9.71-2.71q-7.92,0-7.92,5.63,0,6.63,7.5,6.63a10.38,10.38,0,0,0,5.67-1.77,13.42,13.42,0,0,0,4.46-4.86Zm17,25.13,8.92-17.42-14.76-31.7h8.27l10,24.13,9.86-24.13h7.42L385,72.21Z"></path> </g> </g> </g> </svg> 